<svg aria-roledescription="er" role="graphics-document document" viewBox="0 0 157.68553161621094 430" style="max-width: 157.686px; background-color: white;" xmlns:xlink="http://www.w3.org/1999/xlink" xmlns="http://www.w3.org/2000/svg" width="100%" id="my-svg"><style>#my-svg{font-family:"trebuchet ms",verdana,arial,sans-serif;font-size:16px;fill:#333;}#my-svg .error-icon{fill:#552222;}#my-svg .error-text{fill:#552222;stroke:#552222;}#my-svg .edge-thickness-normal{stroke-width:2px;}#my-svg .edge-thickness-thick{stroke-width:3.5px;}#my-svg .edge-pattern-solid{stroke-dasharray:0;}#my-svg .edge-pattern-dashed{stroke-dasharray:3;}#my-svg .edge-pattern-dotted{stroke-dasharray:2;}#my-svg .marker{fill:#333333;stroke:#333333;}#my-svg .marker.cross{stroke:#333333;}#my-svg svg{font-family:"trebuchet ms",verdana,arial,sans-serif;font-size:16px;}#my-svg .entityBox{fill:#ECECFF;stroke:#9370DB;}#my-svg .attributeBoxOdd{fill:#ffffff;stroke:#9370DB;}#my-svg .attributeBoxEven{fill:#f2f2f2;stroke:#9370DB;}#my-svg .relationshipLabelBox{fill:hsl(80, 100%, 96.2745098039%);opacity:0.7;background-color:hsl(80, 100%, 96.2745098039%);}#my-svg .relationshipLabelBox rect{opacity:0.5;}#my-svg .relationshipLine{stroke:#333333;}#my-svg .entityTitleText{text-anchor:middle;font-size:18px;fill:#333;}#my-svg #MD_PARENT_START{fill:#f5f5f5!important;stroke:#333333!important;stroke-width:1;}#my-svg #MD_PARENT_END{fill:#f5f5f5!important;stroke:#333333!important;stroke-width:1;}#my-svg :root{--mermaid-font-family:"trebuchet ms",verdana,arial,sans-serif;}</style><g/><defs><marker orient="auto" markerHeight="240" markerWidth="190" refY="7" refX="0" id="MD_PARENT_START"><path d="M 18,7 L9,13 L1,7 L9,1 Z"/></marker></defs><defs><marker orient="auto" markerHeight="28" markerWidth="20" refY="7" refX="19" id="MD_PARENT_END"><path d="M 18,7 L9,13 L1,7 L9,1 Z"/></marker></defs><defs><marker orient="auto" markerHeight="18" markerWidth="18" refY="9" refX="0" id="ONLY_ONE_START"><path d="M9,0 L9,18 M15,0 L15,18" fill="none" stroke="gray"/></marker></defs><defs><marker orient="auto" markerHeight="18" markerWidth="18" refY="9" refX="18" id="ONLY_ONE_END"><path d="M3,0 L3,18 M9,0 L9,18" fill="none" stroke="gray"/></marker></defs><defs><marker orient="auto" markerHeight="18" markerWidth="30" refY="9" refX="0" id="ZERO_OR_ONE_START"><circle r="6" cy="9" cx="21" fill="white" stroke="gray"/><path d="M9,0 L9,18" fill="none" stroke="gray"/></marker></defs><defs><marker orient="auto" markerHeight="18" markerWidth="30" refY="9" refX="30" id="ZERO_OR_ONE_END"><circle r="6" cy="9" cx="9" fill="white" stroke="gray"/><path d="M21,0 L21,18" fill="none" stroke="gray"/></marker></defs><defs><marker orient="auto" markerHeight="36" markerWidth="45" refY="18" refX="18" id="ONE_OR_MORE_START"><path d="M0,18 Q 18,0 36,18 Q 18,36 0,18 M42,9 L42,27" fill="none" stroke="gray"/></marker></defs><defs><marker orient="auto" markerHeight="36" markerWidth="45" refY="18" refX="27" id="ONE_OR_MORE_END"><path d="M3,9 L3,27 M9,18 Q27,0 45,18 Q27,36 9,18" fill="none" stroke="gray"/></marker></defs><defs><marker orient="auto" markerHeight="36" markerWidth="57" refY="18" refX="18" id="ZERO_OR_MORE_START"><circle r="6" cy="18" cx="48" fill="white" stroke="gray"/><path d="M0,18 Q18,0 36,18 Q18,36 0,18" fill="none" stroke="gray"/></marker></defs><defs><marker orient="auto" markerHeight="36" markerWidth="57" refY="18" refX="39" id="ZERO_OR_MORE_END"><circle r="6" cy="18" cx="9" fill="white" stroke="gray"/><path d="M21,18 Q39,0 57,18 Q39,36 21,18" fill="none" stroke="gray"/></marker></defs><path style="stroke: gray; fill: none;" marker-start="url(#ONLY_ONE_START)" marker-end="url(#ZERO_OR_MORE_END)" d="M78.843,176L78.843,184.333C78.843,192.667,78.843,209.333,78.843,226C78.843,242.667,78.843,259.333,78.843,267.667L78.843,276" class="er relationshipLine"/><g transform="translate(23.262741088867188,20 )" id="entity-PRODUCTS-362c442a-463b-592a-aa0d-86bc5b21c2f4"><rect height="156" width="111.16004943847656" y="0" x="0" class="er entityBox"/><text style="dominant-baseline: middle; text-anchor: middle; font-size: 12px;" transform="translate(55.58002471923828,12)" y="0" x="0" id="text-entity-PRODUCTS-362c442a-463b-592a-aa0d-86bc5b21c2f4" class="er entityLabel">PRODUCTS</text><rect height="22" width="34.06306457519531" y="24" x="0" class="er attributeBoxOdd"/><text style="dominant-baseline: middle; font-size: 10.2px;" transform="translate(5,35)" y="0" x="0" id="text-entity-PRODUCTS-362c442a-463b-592a-aa0d-86bc5b21c2f4-attr-1-type" class="er entityLabel">INT</text><rect height="22" width="54.4093017578125" y="24" x="34.06306457519531" class="er attributeBoxOdd"/><text style="dominant-baseline: middle; font-size: 10.2px;" transform="translate(39.06306457519531,35)" y="0" x="0" id="text-entity-PRODUCTS-362c442a-463b-592a-aa0d-86bc5b21c2f4-attr-1-name" class="er entityLabel">id</text><rect height="22" width="22.68768310546875" y="24" x="88.47236633300781" class="er attributeBoxOdd"/><text style="dominant-baseline: middle; font-size: 10.2px;" transform="translate(93.47236633300781,35)" y="0" x="0" id="text-entity-PRODUCTS-362c442a-463b-592a-aa0d-86bc5b21c2f4-attr-1-key" class="er entityLabel">PK</text><rect height="22" width="34.06306457519531" y="46" x="0" class="er attributeBoxEven"/><text style="dominant-baseline: middle; font-size: 10.2px;" transform="translate(5,57)" y="0" x="0" id="text-entity-PRODUCTS-362c442a-463b-592a-aa0d-86bc5b21c2f4-attr-2-type" class="er entityLabel">TEXT</text><rect height="22" width="54.4093017578125" y="46" x="34.06306457519531" class="er attributeBoxEven"/><text style="dominant-baseline: middle; font-size: 10.2px;" transform="translate(39.06306457519531,57)" y="0" x="0" id="text-entity-PRODUCTS-362c442a-463b-592a-aa0d-86bc5b21c2f4-attr-2-name" class="er entityLabel">name</text><rect height="22" width="22.68768310546875" y="46" x="88.47236633300781" class="er attributeBoxEven"/><text style="dominant-baseline: middle; font-size: 10.2px;" transform="translate(93.47236633300781,57)" y="0" x="0" id="text-entity-PRODUCTS-362c442a-463b-592a-aa0d-86bc5b21c2f4-attr-2-key" class="er entityLabel"/><rect height="22" width="34.06306457519531" y="68" x="0" class="er attributeBoxOdd"/><text style="dominant-baseline: middle; font-size: 10.2px;" transform="translate(5,79)" y="0" x="0" id="text-entity-PRODUCTS-362c442a-463b-592a-aa0d-86bc5b21c2f4-attr-3-type" class="er entityLabel">INT</text><rect height="22" width="54.4093017578125" y="68" x="34.06306457519531" class="er attributeBoxOdd"/><text style="dominant-baseline: middle; font-size: 10.2px;" transform="translate(39.06306457519531,79)" y="0" x="0" id="text-entity-PRODUCTS-362c442a-463b-592a-aa0d-86bc5b21c2f4-attr-3-name" class="er entityLabel">price_czk</text><rect height="22" width="22.68768310546875" y="68" x="88.47236633300781" class="er attributeBoxOdd"/><text style="dominant-baseline: middle; font-size: 10.2px;" transform="translate(93.47236633300781,79)" y="0" x="0" id="text-entity-PRODUCTS-362c442a-463b-592a-aa0d-86bc5b21c2f4-attr-3-key" class="er entityLabel"/><rect height="22" width="34.06306457519531" y="90" x="0" class="er attributeBoxEven"/><text style="dominant-baseline: middle; font-size: 10.2px;" transform="translate(5,101)" y="0" x="0" id="text-entity-PRODUCTS-362c442a-463b-592a-aa0d-86bc5b21c2f4-attr-4-type" class="er entityLabel">TEXT</text><rect height="22" width="54.4093017578125" y="90" x="34.06306457519531" class="er attributeBoxEven"/><text style="dominant-baseline: middle; font-size: 10.2px;" transform="translate(39.06306457519531,101)" y="0" x="0" id="text-entity-PRODUCTS-362c442a-463b-592a-aa0d-86bc5b21c2f4-attr-4-name" class="er entityLabel">image</text><rect height="22" width="22.68768310546875" y="90" x="88.47236633300781" class="er attributeBoxEven"/><text style="dominant-baseline: middle; font-size: 10.2px;" transform="translate(93.47236633300781,101)" y="0" x="0" id="text-entity-PRODUCTS-362c442a-463b-592a-aa0d-86bc5b21c2f4-attr-4-key" class="er entityLabel"/><rect height="22" width="34.06306457519531" y="112" x="0" class="er attributeBoxOdd"/><text style="dominant-baseline: middle; font-size: 10.2px;" transform="translate(5,123)" y="0" x="0" id="text-entity-PRODUCTS-362c442a-463b-592a-aa0d-86bc5b21c2f4-attr-5-type" class="er entityLabel">TEXT</text><rect height="22" width="54.4093017578125" y="112" x="34.06306457519531" class="er attributeBoxOdd"/><text style="dominant-baseline: middle; font-size: 10.2px;" transform="translate(39.06306457519531,123)" y="0" x="0" id="text-entity-PRODUCTS-362c442a-463b-592a-aa0d-86bc5b21c2f4-attr-5-name" class="er entityLabel">flavor</text><rect height="22" width="22.68768310546875" y="112" x="88.47236633300781" class="er attributeBoxOdd"/><text style="dominant-baseline: middle; font-size: 10.2px;" transform="translate(93.47236633300781,123)" y="0" x="0" id="text-entity-PRODUCTS-362c442a-463b-592a-aa0d-86bc5b21c2f4-attr-5-key" class="er entityLabel"/><rect height="22" width="34.06306457519531" y="134" x="0" class="er attributeBoxEven"/><text style="dominant-baseline: middle; font-size: 10.2px;" transform="translate(5,145)" y="0" x="0" id="text-entity-PRODUCTS-362c442a-463b-592a-aa0d-86bc5b21c2f4-attr-6-type" class="er entityLabel">INT</text><rect height="22" width="54.4093017578125" y="134" x="34.06306457519531" class="er attributeBoxEven"/><text style="dominant-baseline: middle; font-size: 10.2px;" transform="translate(39.06306457519531,145)" y="0" x="0" id="text-entity-PRODUCTS-362c442a-463b-592a-aa0d-86bc5b21c2f4-attr-6-name" class="er entityLabel">in_stock</text><rect height="22" width="22.68768310546875" y="134" x="88.47236633300781" class="er attributeBoxEven"/><text style="dominant-baseline: middle; font-size: 10.2px;" transform="translate(93.47236633300781,145)" y="0" x="0" id="text-entity-PRODUCTS-362c442a-463b-592a-aa0d-86bc5b21c2f4-attr-6-key" class="er entityLabel"/></g><g transform="translate(20,276 )" id="entity-ORDERS-892fdbd0-1a6d-547f-b5d2-5ca9e20e885e"><rect height="134" width="117.68553161621094" y="0" x="0" class="er entityBox"/><text style="dominant-baseline: middle; text-anchor: middle; font-size: 12px;" transform="translate(58.84276580810547,12)" y="0" x="0" id="text-entity-ORDERS-892fdbd0-1a6d-547f-b5d2-5ca9e20e885e" class="er entityLabel">ORDERS</text><rect height="22" width="34.06306457519531" y="24" x="0" class="er attributeBoxOdd"/><text style="dominant-baseline: middle; font-size: 10.2px;" transform="translate(5,35)" y="0" x="0" id="text-entity-ORDERS-892fdbd0-1a6d-547f-b5d2-5ca9e20e885e-attr-1-type" class="er entityLabel">INT</text><rect height="22" width="60.934783935546875" y="24" x="34.06306457519531" class="er attributeBoxOdd"/><text style="dominant-baseline: middle; font-size: 10.2px;" transform="translate(39.06306457519531,35)" y="0" x="0" id="text-entity-ORDERS-892fdbd0-1a6d-547f-b5d2-5ca9e20e885e-attr-1-name" class="er entityLabel">id</text><rect height="22" width="22.68768310546875" y="24" x="94.99784851074219" class="er attributeBoxOdd"/><text style="dominant-baseline: middle; font-size: 10.2px;" transform="translate(99.99784851074219,35)" y="0" x="0" id="text-entity-ORDERS-892fdbd0-1a6d-547f-b5d2-5ca9e20e885e-attr-1-key" class="er entityLabel">PK</text><rect height="22" width="34.06306457519531" y="46" x="0" class="er attributeBoxEven"/><text style="dominant-baseline: middle; font-size: 10.2px;" transform="translate(5,57)" y="0" x="0" id="text-entity-ORDERS-892fdbd0-1a6d-547f-b5d2-5ca9e20e885e-attr-2-type" class="er entityLabel">TEXT</text><rect height="22" width="60.934783935546875" y="46" x="34.06306457519531" class="er attributeBoxEven"/><text style="dominant-baseline: middle; font-size: 10.2px;" transform="translate(39.06306457519531,57)" y="0" x="0" id="text-entity-ORDERS-892fdbd0-1a6d-547f-b5d2-5ca9e20e885e-attr-2-name" class="er entityLabel">created_at</text><rect height="22" width="22.68768310546875" y="46" x="94.99784851074219" class="er attributeBoxEven"/><text style="dominant-baseline: middle; font-size: 10.2px;" transform="translate(99.99784851074219,57)" y="0" x="0" id="text-entity-ORDERS-892fdbd0-1a6d-547f-b5d2-5ca9e20e885e-attr-2-key" class="er entityLabel"/><rect height="22" width="34.06306457519531" y="68" x="0" class="er attributeBoxOdd"/><text style="dominant-baseline: middle; font-size: 10.2px;" transform="translate(5,79)" y="0" x="0" id="text-entity-ORDERS-892fdbd0-1a6d-547f-b5d2-5ca9e20e885e-attr-3-type" class="er entityLabel">INT</text><rect height="22" width="60.934783935546875" y="68" x="34.06306457519531" class="er attributeBoxOdd"/><text style="dominant-baseline: middle; font-size: 10.2px;" transform="translate(39.06306457519531,79)" y="0" x="0" id="text-entity-ORDERS-892fdbd0-1a6d-547f-b5d2-5ca9e20e885e-attr-3-name" class="er entityLabel">total_czk</text><rect height="22" width="22.68768310546875" y="68" x="94.99784851074219" class="er attributeBoxOdd"/><text style="dominant-baseline: middle; font-size: 10.2px;" transform="translate(99.99784851074219,79)" y="0" x="0" id="text-entity-ORDERS-892fdbd0-1a6d-547f-b5d2-5ca9e20e885e-attr-3-key" class="er entityLabel"/><rect height="22" width="34.06306457519531" y="90" x="0" class="er attributeBoxEven"/><text style="dominant-baseline: middle; font-size: 10.2px;" transform="translate(5,101)" y="0" x="0" id="text-entity-ORDERS-892fdbd0-1a6d-547f-b5d2-5ca9e20e885e-attr-4-type" class="er entityLabel">INT</text><rect height="22" width="60.934783935546875" y="90" x="34.06306457519531" class="er attributeBoxEven"/><text style="dominant-baseline: middle; font-size: 10.2px;" transform="translate(39.06306457519531,101)" y="0" x="0" id="text-entity-ORDERS-892fdbd0-1a6d-547f-b5d2-5ca9e20e885e-attr-4-name" class="er entityLabel">product_id</text><rect height="22" width="22.68768310546875" y="90" x="94.99784851074219" class="er attributeBoxEven"/><text style="dominant-baseline: middle; font-size: 10.2px;" transform="translate(99.99784851074219,101)" y="0" x="0" id="text-entity-ORDERS-892fdbd0-1a6d-547f-b5d2-5ca9e20e885e-attr-4-key" class="er entityLabel">FK</text><rect height="22" width="34.06306457519531" y="112" x="0" class="er attributeBoxOdd"/><text style="dominant-baseline: middle; font-size: 10.2px;" transform="translate(5,123)" y="0" x="0" id="text-entity-ORDERS-892fdbd0-1a6d-547f-b5d2-5ca9e20e885e-attr-5-type" class="er entityLabel">INT</text><rect height="22" width="60.934783935546875" y="112" x="34.06306457519531" class="er attributeBoxOdd"/><text style="dominant-baseline: middle; font-size: 10.2px;" transform="translate(39.06306457519531,123)" y="0" x="0" id="text-entity-ORDERS-892fdbd0-1a6d-547f-b5d2-5ca9e20e885e-attr-5-name" class="er entityLabel">quantity</text><rect height="22" width="22.68768310546875" y="112" x="94.99784851074219" class="er attributeBoxOdd"/><text style="dominant-baseline: middle; font-size: 10.2px;" transform="translate(99.99784851074219,123)" y="0" x="0" id="text-entity-ORDERS-892fdbd0-1a6d-547f-b5d2-5ca9e20e885e-attr-5-key" class="er entityLabel"/></g><rect height="14" width="44.978515625" y="219" x="56.35374450683594" class="er relationshipLabelBox"/><text style="text-anchor: middle; dominant-baseline: middle; font-size: 12px;" y="226" x="78.84300231933594" id="rel1" class="er relationshipLabel">contains</text></svg>